<?xml version="1.0" encoding="utf-8"?>
<!-- Generator: Adobe Illustrator 16.0.0, SVG Export Plug-In . SVG Version: 6.00 Build 0)  -->
<!DOCTYPE svg PUBLIC "-//W3C//DTD SVG 1.1//EN" "http://www.w3.org/Graphics/SVG/1.1/DTD/svg11.dtd">
<svg version="1.1" id="Layer_1" xmlns="http://www.w3.org/2000/svg" xmlns:xlink="http://www.w3.org/1999/xlink" x="0px" y="0px"
	 width="182px" height="91.5px" viewBox="0 0 182 91.5" enable-background="new 0 0 182 91.5" xml:space="preserve">
<g>
	<path fill="#1DBE49" d="M8.15,43.682c-0.926,0.065-1.563,0.096-1.91,0.096c-1.855,0.045-3.205-0.207-4.045-0.741
		c-0.844-0.54-1.313-1.009-1.65-1.89c-0.223-0.586-0.316-1.516-0.291-2.127c0.025-0.672,0.119-1.244,0.158-1.72
		c1.383,0.22,2.754,0.394,4.113,0.522c1.357,0.132,3.354,0.193,4.518,0.193h5.273c-0.129-2.049-0.318-3.274-0.607-4.596
		c-0.246-1.105-0.512-2.016-0.898-3.094c1.125-0.26,2.045-0.465,3.254-0.615s2.613-0.119,3.738,0.098
		c1.34,0.258,2.156,0.664,2.801,1.359c0.693,0.749,1.035,1.729,1.035,3.24c0,1.126-0.086,2.101-0.324,3.607h9.207
		c1.945,0,3.01,0.928,3.01,2.783c0,1.922-0.914,2.786-2.943,2.786H11.035C10.689,43.585,9.078,43.614,8.15,43.682"/>
	<path fill="#1DBE49" d="M33.74,57.586c0-3.932-1.465-6.936-4.412-9.008c-2.939-2.071-6.48-3.108-10.625-3.108
		c-4.143,0-7.689,1.037-10.629,3.108c-2.941,2.072-4.41,5.076-4.41,9.008c0,3.852,1.418,6.932,4.25,9.236
		c2.84,2.306,6.428,3.46,10.789,3.46c4.061,0,7.582-1.154,10.563-3.46C32.25,64.518,33.74,61.438,33.74,57.586 M24.414,57.586
		c0,2.159-0.551,3.839-1.65,5.051c-1.098,1.201-2.453,1.805-4.061,1.805c-1.611,0-2.961-0.604-4.064-1.805
		c-1.098-1.212-1.65-2.892-1.65-5.051c0-2.238,0.502-3.941,1.492-5.105c0.996-1.162,2.402-1.744,4.223-1.744
		c1.861,0,3.279,0.582,4.252,1.744C23.924,53.645,24.414,55.348,24.414,57.586"/>
	<path fill="#1DBE49" d="M45.861,48.534h4.645V36.917c0-1.119-0.117-2.342-0.355-3.66c-0.236-1.313-0.592-2.574-1.07-3.783
		c1.082-0.218,2.137-0.359,3.172-0.422c1.043-0.068,2.203,0.012,3.496,0.225c1.342,0.219,2.281,0.756,2.824,1.621
		c0.539,0.864,0.809,2.047,0.809,3.561c0,0.816-0.02,2.013-0.064,3.09c-0.043,1.08-0.066,2.027-0.066,2.852v35.613
		c0,1.465-0.453,2.764-1.361,3.883c-0.906,1.125-2.098,1.685-3.566,1.685h-1.744c-0.688,0-1.209-0.171-1.553-0.517
		c-0.344-0.345-0.52-0.862-0.52-1.557V54.682h-4.645v20.684c0,1.468-0.455,2.763-1.359,3.881c-0.91,1.125-1.852,1.686-3.314,1.686
		h-1.689c-0.686,0-1.219-0.172-1.584-0.517c-0.367-0.347-0.549-0.862-0.549-1.554V38.016c0-1.119-0.123-2.392-0.355-3.818
		c-0.238-1.424-0.598-2.741-1.07-3.948c1.162-0.218,2.273-0.38,3.334-0.489c1.059-0.105,1.928-0.053,3.092,0.161
		c1.336,0.22,2.285,0.761,2.848,1.623c0.563,0.86,0.844,2.048,0.844,3.56c0,0.821-0.033,2.069-0.098,3.254
		c-0.066,1.188-0.098,2.19-0.098,3.012V48.534z"/>
	<path fill="#1DBE49" d="M75.582,69.381c-1.27,0.045-2.076,0.064-2.426,0.064c-1.857,0.048-3.209-0.215-4.045-0.775
		c-0.838-0.559-1.436-1.271-1.777-2.134c-0.178-0.606-0.232-1.255-0.168-1.943c0.066-0.692,0.121-1.274,0.168-1.751
		c1.377,0.217,2.787,0.393,4.236,0.52c1.447,0.131,2.754,0.195,3.914,0.195h19.797c2.547,0,6.125-0.209,9.273-0.615
		c3.148-0.409,5.576-1.072,6.781-1.976V36.789c0-1.08-0.105-2.31-0.322-3.69c-0.215-1.384-0.561-2.675-1.033-3.886
		c1.207-0.172,2.424-0.333,3.658-0.45c1.383-0.134,2.656-0.121,3.916,0.191c1.336,0.334,2.209,0.908,2.75,1.795
		c0.539,0.886,0.813,2.001,0.813,3.512c0,0.822-0.025,1.772-0.066,2.852c-0.049,1.076-0.066,2.027-0.066,2.847v35.989
		c0,1.467-0.471,2.789-1.424,3.975c-0.945,1.191-2.154,1.783-3.619,1.783h-2.398c-0.695,0-1.236-0.171-1.623-0.516
		c-0.389-0.347-0.584-0.862-0.584-1.555V66.081c-1.119,0.951-3.475,1.729-6.588,2.332c-3.107,0.604-7.525,0.908-11.801,0.908H78.012
		C77.666,69.321,76.859,69.341,75.582,69.381"/>
	<path fill="#1DBE49" d="M106.186,34.114c0.541,0.584,0.752,1.242,0.752,1.974c0,0.69-0.223,1.328-0.779,1.913
		c-0.563,0.582-1.404,0.872-2.527,0.872H77.734c-0.344,0-0.854,0.014-1.523,0.03c-0.668,0.026-1.174,0.035-1.518,0.035
		c-1.861,0.043-3.209-0.182-4.045-0.681c-0.842-0.498-1.436-1.175-1.781-2.039c-0.172-0.601-0.229-1.241-0.164-1.909
		c0.066-0.67,0.139-1.24,0.227-1.715c1.383,0.215,2.795,0.374,4.24,0.486c1.447,0.105,3.48,0.16,4.648,0.16h25.879
		C104.818,33.241,105.645,33.535,106.186,34.114"/>
	<polygon fill="#1DBE49" points="83.869,37.128 84.387,65.561 74.869,65.561 74.287,37.128 	"/>
	<polygon fill="#1DBE49" points="101.658,37.128 101.078,65.561 91.561,65.561 92.08,37.128 	"/>
	<path fill="#14A13C" d="M159.09,23.458c3.852,1.082,7.496,1.224,10.123,3.194c2.094,1.574,2.594,3.451,2.799,5.285
		c0.139,1.226,0.189,2.385,0.189,3.51v38.275c0,0.691,0.182,1.215,0.549,1.553c0.367,0.349,0.893,0.521,1.584,0.521h2.396
		c1.467,0,2.678-0.593,3.627-1.78c0.947-1.188,1.422-2.517,1.422-3.982V36.882c0-4.12-1.447-5.819-4.943-6.662
		c-1.713-0.413-3.053-1.62-3.475-3.651c-0.492-2.344-1.586-4.512-3.35-6.202c-2.209-2.113-5.615-3.296-8.893-4.173
		c-5.977-1.592-9.754-4.207-11.938-8.34c2.709,3.584,6.182,5.455,11.6,6.739c4.063,0.962,7.566,1.929,9.908,4.461
		c-0.332-3.006-1.633-4.987-3.859-6.674c-2.443-1.849-7.064-3.426-11.379-4.63c-4.908-1.366-8.621-3.471-10.873-7.551
		c-1.793,6.104-0.895,11.656,3.049,16.445C150.49,20.124,155.18,22.364,159.09,23.458 M181.568,86.832
		c-0.521-0.519-1.316-0.778-2.398-0.778h-19.986c-1.465,0-2.395-0.254-2.783-0.773c-0.387-0.521-0.578-1.403-0.578-2.658v-7.133
		c0-1.51-0.328-2.688-0.973-3.528c-0.646-0.843-1.645-1.392-2.977-1.655c-1.34-0.254-2.527-0.287-3.826-0.195
		c-1.205,0.082-2.416,0.209-3.621,0.386c0.475,1.208,0.807,2.323,1.002,3.476c0.195,1.139,0.293,2.271,0.293,3.393v7.463
		c0,2.677,0.82,4.422,2.459,5.246c1.643,0.82,3.131,1.228,4.471,1.228h26.52c1.082,0,1.877-0.271,2.398-0.808
		c0.518-0.54,0.777-1.155,0.777-1.846C182.346,87.958,182.086,87.35,181.568,86.832 M153.406,56.502c0,1.037-0.205,1.8-0.613,2.3
		c-0.412,0.495-1.111,0.746-2.102,0.746h-6.318c-0.865,0-1.506-0.304-1.938-0.909c-0.434-0.601-0.65-1.291-0.65-2.072v-8.094h11.621
		V56.502z M160.965,63.077c1.314-1.143,1.975-2.774,1.975-4.889V41.662c0-0.692,0.025-1.839,0.07-2.464
		c0.039-0.621,0.063-1.286,0.063-1.971c0-1.513-0.193-2.764-0.824-3.888c-0.598-1.071-1.566-1.676-2.93-1.991
		c-1.408-0.328-2.613-0.349-3.889-0.242c-1.209,0.104-2.17,0.248-3.381,0.42c0.436,1.031,0.711,1.979,0.971,3.19
		c0.262,1.209,0.387,2.616,0.387,3.737v4.453h-11.621v-2.834c0-0.477,0.127-2.44,0.127-2.911c0.049-1.513-0.256-2.72-0.904-3.628
		c-0.645-0.904-1.639-1.549-2.975-1.809c-1.338-0.264-2.604-0.264-3.791-0.134c-1.186,0.127-2.139,0.3-3.348,0.519
		c0.477,1.207,0.82,2.494,1.035,3.852c0.215,1.363,0.322,2.579,0.322,3.66v18.566c0,2.114,0.66,3.746,1.973,4.889
		c1.32,1.143,2.885,1.715,4.699,1.715h17.352C158.086,64.792,159.646,64.219,160.965,63.077"/>
</g>
</svg>
