<?xml version="1.0" encoding="utf-8"?>
<!-- Generator: Adobe Illustrator 16.0.0, SVG Export Plug-In . SVG Version: 6.00 Build 0)  -->
<!DOCTYPE svg PUBLIC "-//W3C//DTD SVG 1.1//EN" "http://www.w3.org/Graphics/SVG/1.1/DTD/svg11.dtd">
<svg version="1.1" id="Layer_1" xmlns="http://www.w3.org/2000/svg" xmlns:xlink="http://www.w3.org/1999/xlink" x="0px" y="0px"
	 width="333.211px" height="90.912px" viewBox="0 0 333.211 90.912" enable-background="new 0 0 333.211 90.912"
	 xml:space="preserve">
<path fill="#1DBE49" d="M4.5,31.569c1.982-0.075,3.695,0.318,4.973,1.361c1.271,1.047,1.857,2.662,1.768,4.836
	c-0.047,1.183-0.076,2.465-0.1,3.851s-0.037,2.669-0.037,3.851v3.338h13.629v-9.607c0-1.315-0.072-2.558-0.207-3.711
	c-0.135-1.181-0.273-2.396-0.406-3.716h10.695c-0.135,1.32-0.238,2.578-0.309,3.779c-0.066,1.204-0.1,2.465-0.1,3.786v29.296
	c0,0.951,0.047,2.107,0.133,3.475c0.094,1.361,0.41,2.791,0.953,4.291c0,0-2.629,0.27-4.658,0.27s-3.426-0.361-4.602-1.361
	c-1.186-1-1.734-2.701-1.637-5.111c0.09-1.5,0.137-2.893,0.137-4.186v-4.193v-5.18H11.104v11.586c0,1.227,0.09,2.666,0.275,4.322
	c0.18,1.662,0.361,2.943,0.551,3.854H0.889c0.227-0.91,0.402-2.191,0.543-3.854c0.135-1.656,0.205-3.123,0.205-4.393V42.263
	c0-1.771-0.09-3.492-0.273-5.176C1.178,35.405,0.729,33.657,0,31.843C0,31.843,2.514,31.647,4.5,31.569"/>
<path fill="#1DBE49" d="M46.135,43.494c1.092-0.548,2.09-1.004,2.998-1.365c1.406-0.588,3.133-1.067,5.18-1.431
	c2.039-0.364,3.719-0.545,5.041-0.545c2.631,0,5.018,0.535,7.152,1.604c2.135,1.063,3.656,2.437,4.566,4.118
	c0.359,0.684,0.646,1.374,0.85,2.079s0.307,1.941,0.307,3.713v14.445c0,1.908,0.363,3.596,1.088,5.076
	c0.727,1.475,1.771,2.711,3.137,3.711c0,0-0.799,0.82-1.781,1.463c-1.105,0.717-2.318,1.293-3.842,1.191
	c-1.367-0.092-2.291-0.389-3.102-1.203c-0.766-0.766-1.311-1.695-1.701-2.609c-0.553,0.553-1.27,1.178-2.109,1.703
	c-0.773,0.484-1.781,1.055-3.172,1.533c-1.385,0.475-3.504,0.715-4.771,0.715c-3.902,0-6.549-0.65-9.158-2.486
	c-2.727-1.922-4.088-4.709-4.088-9.164c0-4.676,1.68-7.885,4.975-9.742c3.439-1.943,7.244-2.729,11.783-2.729l4.088,0.07v-0.955
	c0-1.994-0.5-3.305-1.496-3.914c-1.002-0.613-2.314-0.922-3.953-0.922c-0.861,0-1.793,0.127-2.793,0.377
	c-0.998,0.246-2.113,0.6-3.338,1.057c-1.637,0.592-3.01,0.758-4.125,0.51c-1.109-0.252-2.184-1.217-3.232-2.895l-1.16-1.91
	C44.16,44.538,45.047,44.038,46.135,43.494 M63.029,59.91c-3.857,0-6.613,0.412-8.275,1.229c-1.658,0.814-2.488,2.244-2.488,4.291
	s0.785,3.406,1.832,4.09c1.045,0.678,2.154,1.021,4.377,1.021c0.771,0,1.865-0.195,2.75-0.582c0.885-0.385,1.623-0.918,2.217-1.6
	V59.91H63.029z"/>
<path fill="#1DBE49" d="M91.111,86.173c0.094,1.479,0.41,2.961,0.951,4.463c0,0-2.395,0.275-4.426,0.275s-3.111-0.365-4.156-1.361
	c-1.043-1.004-1.521-2.701-1.434-5.109c0.094-1.5,0.143-2.943,0.143-4.33v-4.322V52.009v-0.92v-0.65
	c0-1.588-0.152-3.076-0.449-4.461c-0.293-1.385-0.801-2.76-1.527-4.121c0,0,1.988-0.484,3.814-0.811
	c1.998-0.357,3.811-0.131,4.838,0.535c0.729,0.477,1.244,1.271,1.496,2.117c0.775-0.908,1.963-1.684,3.576-2.318
	s3.262-0.955,4.943-0.955c3.447,0,6.629,0.803,9.535,4.124c2.635,3.009,4.361,7.164,4.361,13.253c0,6.854-1.488,11.793-4.463,14.814
	c-2.979,3.021-6.348,4.531-10.117,4.531c-1.182,0-2.473-0.18-3.881-0.545c-1.414-0.363-2.572-0.797-3.479-1.295
	c0.047,0.412,0.082,0.861,0.104,1.361c0.025,0.502,0.035,1,0.035,1.498v4.363C90.977,83.484,91.021,84.697,91.111,86.173
	 M93.326,69.378c0.793,0.365,1.666,0.547,2.623,0.547c2.268,0,4.006-0.861,5.211-2.59c1.203-1.725,1.807-4.633,1.807-8.719
	c0-3.496-0.441-6.166-1.33-8.006c-0.887-1.838-2.443-2.76-4.668-2.76c-1,0-2.053,0.252-3.166,0.752
	c-1.113,0.496-2.033,1.133-2.764,1.902V67.88C91.77,68.515,92.529,69.017,93.326,69.378"/>
<path fill="#1DBE49" d="M128.834,86.173c0.092,1.479,0.408,2.961,0.957,4.463c0,0-2.398,0.275-4.43,0.275
	c-2.033,0-3.113-0.365-4.156-1.361c-1.041-1.004-1.521-2.701-1.432-5.109c0.092-1.5,0.139-2.943,0.139-4.33v-4.322V52.009v-0.92
	v-0.65c0-1.588-0.15-3.076-0.447-4.461c-0.293-1.385-0.803-2.76-1.529-4.121c0,0,1.99-0.484,3.813-0.811
	c2-0.357,3.813-0.131,4.836,0.535c0.734,0.477,1.25,1.271,1.504,2.117c0.768-0.908,1.961-1.684,3.574-2.318s3.258-0.955,4.939-0.955
	c3.449,0,6.633,0.803,9.535,4.124c2.635,3.009,4.363,7.164,4.363,13.253c0,6.854-1.486,11.793-4.463,14.814
	s-6.348,4.531-10.117,4.531c-1.178,0-2.475-0.18-3.881-0.545c-1.41-0.363-2.57-0.797-3.477-1.295
	c0.045,0.412,0.08,0.861,0.102,1.361c0.025,0.502,0.033,1,0.033,1.498v4.363C128.697,83.484,128.744,84.697,128.834,86.173
	 M131.047,69.378c0.797,0.365,1.672,0.547,2.625,0.547c2.268,0,4.008-0.861,5.213-2.59c1.203-1.725,1.807-4.633,1.807-8.719
	c0-3.496-0.445-6.166-1.332-8.006c-0.883-1.838-2.439-2.76-4.668-2.76c-1,0-2.053,0.252-3.166,0.752
	c-1.113,0.496-2.033,1.133-2.762,1.902V67.88C129.492,68.515,130.25,69.017,131.047,69.378"/>
<path fill="#1DBE49" d="M156.693,41.495c2.035-0.357,4.018-0.223,5.113,0.402c1.098,0.629,1.936,1.926,2.521,3.895l4.635,15.526
	l1.816,7.053c0.443-2.014,0.848-3.729,1.205-5.141c0.363-1.404,0.83-3.1,1.414-5.072l3.695-12.43
	c0.49-1.701,1.359-2.865,2.617-3.491c1.252-0.63,2.629-0.812,4.568-0.741c1.945,0.072,4.234,0.336,4.234,0.336
	c-0.404,0.76-0.811,1.527-1.209,2.287c-0.406,0.76-0.762,1.563-1.078,2.415l-10.75,30.17c-1.162,3.271-2.291,5.803-3.391,7.592
	c-1.1,1.791-2.275,3.246-3.529,4.367c-0.398,0.311-0.814,0.615-1.24,0.906c-0.426,0.289-0.953,0.566-1.578,0.838
	c-1.078,0.451-2.318,0.574-3.729,0.373c-1.41-0.203-2.779-0.957-3.637-2.186c-0.789-1.129-1.727-3.357-1.727-3.357
	c0.76-0.047,1.264-0.137,2.004-0.271c0.74-0.131,1.527-0.359,1.971-0.557c1.41-0.621,2.418-1.301,3.367-2.254
	c0.52-0.516,0.896-1.131,1.211-1.619c0.266-0.451,0.627-1.111,1.074-1.982c0.445-0.873,0.83-1.672,1.143-2.389
	c-0.715,0-1.398-0.402-2.049-1.209c-0.645-0.809-1.197-1.881-1.646-3.227l-8.193-24.186c-0.311-0.941-0.715-1.848-1.209-2.719
	c-0.494-0.876-1.01-1.74-1.547-2.587C152.771,42.236,154.664,41.854,156.693,41.495"/>
<path fill="#14A13C" d="M267.729,43.494c1.092-0.548,2.088-1.004,2.998-1.365c1.408-0.588,3.135-1.067,5.182-1.431
	c2.039-0.364,3.719-0.545,5.037-0.545c2.633,0,5.023,0.535,7.154,1.604c2.133,1.063,3.656,2.437,4.564,4.118
	c0.363,0.684,0.65,1.374,0.854,2.079s0.305,1.941,0.305,3.713v14.445c0,1.908,0.365,3.596,1.09,5.076
	c0.727,1.475,1.771,2.711,3.133,3.711c0,0-0.797,0.82-1.777,1.463c-1.104,0.717-2.322,1.293-3.844,1.191
	c-1.367-0.092-2.289-0.389-3.1-1.203c-0.768-0.766-1.314-1.695-1.701-2.609c-0.553,0.553-1.273,1.178-2.109,1.703
	c-0.773,0.484-1.789,1.055-3.172,1.533c-1.383,0.475-3.504,0.715-4.771,0.715c-3.908,0-6.553-0.65-9.158-2.486
	c-2.73-1.922-4.09-4.709-4.09-9.164c0-4.676,1.68-7.885,4.973-9.742c3.443-1.943,7.244-2.729,11.785-2.729l4.09,0.07v-0.955
	c0-1.994-0.502-3.305-1.498-3.914c-1.006-0.613-2.318-0.922-3.951-0.922c-0.863,0-1.795,0.127-2.795,0.377
	c-0.998,0.246-2.115,0.6-3.338,1.057c-1.635,0.592-3.01,0.758-4.123,0.51c-1.113-0.252-2.189-1.217-3.234-2.895l-1.16-1.91
	C265.754,44.538,266.639,44.038,267.729,43.494 M284.627,59.91c-3.865,0-6.619,0.412-8.279,1.229
	c-1.658,0.814-2.486,2.244-2.486,4.291s0.785,3.406,1.83,4.09c1.043,0.678,2.154,1.021,4.377,1.021c0.775,0,1.863-0.195,2.75-0.582
	c0.887-0.385,1.623-0.918,2.215-1.6V59.91H284.627z"/>
<path fill="#14A13C" d="M238.303,61.818c0,2.316,0.797,4.328,2.389,6.031c1.584,1.701,3.563,2.557,5.922,2.557
	c1,0,2.074-0.195,3.238-0.516c1.234-0.34,2.361-0.869,3.438-1.574c0.703-0.461,1.42-1.168,1.91-1.662c0,0,0.645,0.461,1.254,1.295
	c0.656,0.902,1.098,2.225,0.895,3.408c-0.205,1.184-0.988,2.293-2.354,3.34c-1.365,0.998-2.928,1.689-4.699,2.074
	c-1.775,0.389-3.387,0.582-4.84,0.582c-1.09,0-2.357-0.125-3.811-0.375c-1.459-0.252-2.559-0.557-3.422-0.918
	c-0.859-0.365-1.836-0.9-2.816-1.605c-0.975-0.703-1.779-1.396-2.418-2.074c-0.59-0.637-1.205-1.512-1.838-2.623
	c-0.635-1.117-1.137-2.148-1.498-3.104c-0.322-0.953-0.594-2.176-0.818-3.674c-0.23-1.5-0.34-2.82-0.34-3.955
	c0-3.137,0.34-5.826,1.021-8.074s1.795-4.232,3.338-5.96c1.457-1.683,3.182-2.905,5.178-3.679c1.998-0.771,4.154-1.158,6.473-1.158
	c2.135,0,4.141,0.412,6.031,1.227c1.885,0.816,3.291,1.869,4.324,3.064c1.418,1.634,2.43,3.499,3.203,5.586
	c0.77,2.092,1.199,4.746,1.293,7.971v1.229v2.318h-21.053V61.818z M249.719,52.042c-0.164-0.932-0.57-2.025-1.096-2.846
	c-0.359-0.563-0.93-1.154-1.771-1.582c-0.836-0.434-1.646-0.65-2.416-0.65c-1.727,0-3.16,0.684-4.291,2.047
	c-1.139,1.363-1.707,3.273-1.707,5.725v0.135h11.514C249.951,53.919,249.875,52.972,249.719,52.042"/>
<path fill="#14A13C" d="M325.139,75.578c-1.207-0.814-1.807-2.107-1.807-3.881V53.642c0-1.998-0.49-3.373-1.467-4.121
	c-0.973-0.748-2.236-1.121-3.779-1.121c-0.91,0-1.795,0.137-2.656,0.406c-0.863,0.271-1.82,0.66-2.861,1.158v20.098
	c0,1.09,0.055,2.145,0.17,3.168c0.115,1.021,0.258,2.078,0.443,3.17h-10.428c0.188-1,0.344-2.168,0.477-3.51
	c0.139-1.342,0.209-2.529,0.209-3.578V50.914c0-1.311-0.123-2.904-0.373-4.766c-0.254-1.861-0.561-3.289-0.922-4.291
	c0,0,1.818-0.361,3.512-0.614c1.697-0.251,3.428-0.128,4.465,0.411c0.977,0.505,1.41,1.217,1.602,1.975
	c0.102,0.406,0.137,0.979,0.137,1.159c0.475-0.478,1.072-0.964,1.662-1.397c0.588-0.433,1.291-0.83,2.111-1.193
	c1.002-0.454,2.066-0.816,3.203-1.088c1.135-0.272,2.223-0.41,3.271-0.41c1.951,0,3.801,0.467,5.553,1.398
	c1.744,0.932,2.959,2.145,3.643,3.645c0.316,0.678,0.566,1.452,0.75,2.313c0.178,0.867,0.27,1.75,0.27,2.66v19.965
	c0,0.77,0.084,1.688,0.24,2.758c0.162,1.064,0.375,2.053,0.648,2.963c0,0-2.541,0.27-4.156,0.27
	C327.443,76.669,326.346,76.4,325.139,75.578"/>
<path fill="#14A13C" d="M212.732,62.943c-0.16,1.34-0.471,2.533-0.922,3.58c-0.32,0.771-0.908,1.484-1.771,2.031
	c-0.863,0.545-1.771,0.758-2.725,0.758c-0.453,0-1.391-0.094-1.969-0.295c-1.338-0.467-2.336-1.193-3.141-1.953V50.986
	c1.285-1.287,2.303-1.998,3.41-2.438c0.57-0.227,1.314-0.357,1.768-0.357c1.227,0,2.281,0.377,3.168,1.127
	c0.885,0.748,1.488,1.85,1.805,3.303c0.184,0.865,0.326,1.762,0.445,2.691c0.107,0.934,0.17,2.012,0.17,3.236
	C212.971,60.136,212.891,61.605,212.732,62.943 M219.373,45.399c-2.502-3.184-5.859-4.771-10.084-4.771
	c-1.404,0-2.758,0.277-4.053,0.821c-1.295,0.545-2.332,1.202-3.1,1.974c0.088-0.408,0.148-0.873,0.17-1.395
	c0.021-0.522,0.033-1.078,0.033-1.67v-2.91c0-1.07-0.021-1.874-0.068-2.459c-0.035-1.108-0.395-2.157-1.063-3.018
	c-0.924-1.183-2.352-1.613-3.625-1.951c-1.715-0.414-3.051-1.621-3.477-3.648c-0.492-2.348-1.584-4.516-3.354-6.206
	c-2.199-2.112-5.611-3.299-8.891-4.172c-5.973-1.593-9.754-4.205-11.936-8.34c2.709,3.583,6.184,5.454,11.602,6.741
	c4.064,0.959,7.564,1.928,9.908,4.459c-0.33-3.008-1.631-4.989-3.863-6.674c-2.438-1.85-7.063-3.425-11.379-4.629
	c-4.908-1.367-8.617-3.471-10.871-7.552c-1.791,6.104-0.895,11.655,3.049,16.446c2.863,3.478,7.553,5.719,11.461,6.813
	c3.855,1.08,7.498,1.225,10.123,3.192c2.102,1.573,2.596,3.454,2.805,5.286c0.18,1.947,0.246,5.091,0.246,7.924v29.311
	c0,1.951-0.137,3.479-0.41,4.563c-0.271,1.092-0.592,2.043-0.953,2.865c0,0,1.402,0.193,2.988,0.342
	c1.705,0.154,3.676-0.039,4.744-0.646c1.064-0.613,1.689-1.355,1.873-2.221c0.861,0.912,2.021,1.672,3.479,2.283
	c1.451,0.613,2.916,0.832,4.324,0.832c1.184,0,2.459-0.174,3.918-0.695c1.449-0.52,2.676-1.168,3.674-1.941
	c1.865-1.453,3.41-3.711,4.635-6.779c1.225-3.063,1.836-6.141,1.836-9.227C223.115,52.894,221.869,48.578,219.373,45.399"/>
</svg>
