<?xml version="1.0" encoding="utf-8"?>
<!-- Generator: Adobe Illustrator 16.0.0, SVG Export Plug-In . SVG Version: 6.00 Build 0)  -->
<!DOCTYPE svg PUBLIC "-//W3C//DTD SVG 1.1//EN" "http://www.w3.org/Graphics/SVG/1.1/DTD/svg11.dtd">
<svg version="1.1" id="Layer_1" xmlns="http://www.w3.org/2000/svg" xmlns:xlink="http://www.w3.org/1999/xlink" x="0px" y="0px"
	 width="16.2px" height="18.2px" viewBox="0 0 16.2 18.2" enable-background="new 0 0 16.2 18.2" xml:space="preserve">
<g>
	<g>
		<g>
			<path fill="#555555" d="M7.782,15.041c-4.044,0-7.333-3.289-7.333-7.333c0-4.044,3.29-7.333,7.333-7.333
				c4.044,0,7.334,3.29,7.334,7.333C15.117,11.751,11.827,15.041,7.782,15.041z M7.782,0.897c-3.755,0-6.809,3.055-6.809,6.81
				c0,3.754,3.054,6.809,6.809,6.809c3.755,0,6.81-3.055,6.81-6.809C14.592,3.952,11.538,0.897,7.782,0.897z"/>
			<path fill="#555555" d="M7.782,15.292c-4.182,0-7.584-3.402-7.584-7.584s3.402-7.584,7.584-7.584
				c4.183,0,7.584,3.402,7.584,7.584S11.965,15.292,7.782,15.292z M7.782,0.624c-3.906,0-7.083,3.178-7.083,7.083
				s3.178,7.083,7.083,7.083c3.907,0,7.083-3.178,7.083-7.083S11.689,0.624,7.782,0.624z M7.782,14.767
				c-3.892,0-7.059-3.167-7.059-7.06c0-3.893,3.167-7.06,7.059-7.06c3.894,0,7.06,3.167,7.06,7.06
				C14.842,11.6,11.676,14.767,7.782,14.767z M7.782,1.147c-3.616,0-6.558,2.942-6.558,6.56c0,3.618,2.942,6.559,6.558,6.559
				c3.618,0,6.56-2.941,6.56-6.559C14.342,4.09,11.4,1.147,7.782,1.147z"/>
		</g>
		<g>
			<path fill="#555555" d="M7.782,15.139c-4.099,0-7.432-3.334-7.432-7.432c0-4.099,3.333-7.433,7.432-7.433
				c4.099,0,7.433,3.334,7.433,7.433C15.215,11.805,11.881,15.139,7.782,15.139z M7.782,0.471c-3.989,0-7.236,3.247-7.236,7.236
				c0,3.989,3.247,7.236,7.236,7.236c3.99,0,7.236-3.247,7.236-7.236C15.018,3.718,11.772,0.471,7.782,0.471z M7.782,14.615
				c-3.81,0-6.907-3.099-6.907-6.908c0-3.809,3.098-6.908,6.907-6.908c3.809,0,6.908,3.099,6.908,6.908
				C14.69,11.516,11.591,14.615,7.782,14.615z M7.782,0.996c-3.7,0-6.711,3.01-6.711,6.711c0,3.7,3.011,6.711,6.711,6.711
				c3.701,0,6.711-3.012,6.711-6.711C14.494,4.006,11.483,0.996,7.782,0.996z"/>
			<path fill="#555555" d="M7.782,15.389c-4.236,0-7.683-3.445-7.683-7.682c0-4.236,3.446-7.683,7.683-7.683
				c4.237,0,7.683,3.446,7.683,7.683C15.465,11.944,12.019,15.389,7.782,15.389z M7.782,1.246c-3.562,0-6.46,2.899-6.46,6.461
				c0,3.563,2.898,6.461,6.46,6.461c3.563,0,6.461-2.898,6.461-6.461C14.244,4.145,11.345,1.246,7.782,1.246z"/>
		</g>
	</g>
	<g>
		<g>
			<path fill="#555555" d="M15.491,17.827c-0.075,0-0.148-0.031-0.201-0.092l-3.57-4.123c-0.094-0.111-0.081-0.275,0.029-0.369
				c0.111-0.094,0.275-0.082,0.369,0.029l3.572,4.122c0.094,0.11,0.08,0.276-0.029,0.37C15.61,17.805,15.549,17.827,15.491,17.827z"
				/>
			<path fill="#555555" d="M15.491,18.077c-0.15,0-0.291-0.064-0.39-0.178l-3.571-4.123c-0.09-0.106-0.133-0.238-0.121-0.375
				c0.01-0.137,0.074-0.262,0.178-0.35c0.207-0.178,0.547-0.15,0.723,0.059l3.569,4.121c0.185,0.217,0.159,0.541-0.057,0.724
				C15.729,18.034,15.611,18.077,15.491,18.077z M11.929,13.435l3.562,4.142c0.002,0,0.006-0.002,0.008-0.004L11.929,13.435z"/>
		</g>
		<g>
			<path fill="#555555" d="M15.491,17.925c-0.107,0-0.207-0.046-0.275-0.128l-3.571-4.122c-0.129-0.151-0.11-0.38,0.04-0.509
				c0.152-0.128,0.381-0.109,0.509,0.041l3.571,4.123c0.129,0.152,0.109,0.379-0.041,0.508
				C15.659,17.895,15.575,17.925,15.491,17.925z M11.918,13.278c-0.037,0-0.076,0.014-0.107,0.039
				c-0.066,0.059-0.076,0.162-0.018,0.23l3.571,4.123c0.057,0.066,0.165,0.076,0.231,0.02c0.068-0.059,0.076-0.162,0.018-0.232
				l-3.57-4.123C12.01,13.297,11.965,13.278,11.918,13.278z"/>
			<path fill="#555555" d="M15.491,18.175c-0.182,0-0.352-0.079-0.467-0.216l-3.568-4.121c-0.219-0.257-0.189-0.643,0.066-0.861
				c0.252-0.213,0.652-0.177,0.861,0.068l3.57,4.121c0.219,0.258,0.188,0.644-0.067,0.863
				C15.776,18.124,15.635,18.175,15.491,18.175z"/>
		</g>
	</g>
</g>
</svg>
